<svg width="1400" height="900" viewBox="0 0 1400 900" fill="none" xmlns="http://www.w3.org/2000/svg">
  <defs>
    <linearGradient id="bg" x1="0" y1="0" x2="1400" y2="900" gradientUnits="userSpaceOnUse">
      <stop stop-color="#F8FAFC"/>
      <stop offset="1" stop-color="#EEF2FF"/>
    </linearGradient>
    <linearGradient id="panel" x1="0" y1="0" x2="1" y2="1">
      <stop stop-color="#FFFFFF"/>
      <stop offset="1" stop-color="#F8FAFC"/>
    </linearGradient>
    <linearGradient id="area" x1="0" y1="0" x2="0" y2="1">
      <stop stop-color="#3B82F6" stop-opacity="0.35"/>
      <stop offset="1" stop-color="#3B82F6" stop-opacity="0.03"/>
    </linearGradient>
    <filter id="shadow" x="0" y="0" width="160%" height="160%">
      <feDropShadow dx="0" dy="18" stdDeviation="16" flood-color="#0F172A" flood-opacity="0.12"/>
    </filter>
  </defs>

  <rect width="1400" height="900" rx="36" fill="url(#bg)"/>
  <rect x="50" y="50" width="1300" height="800" rx="28" fill="url(#panel)" stroke="#E2E8F0" filter="url(#shadow)"/>

  <rect x="90" y="90" width="1220" height="64" rx="14" fill="#FFFFFF" stroke="#E2E8F0"/>
  <circle cx="124" cy="122" r="8" fill="#EF4444"/>
  <circle cx="152" cy="122" r="8" fill="#F59E0B"/>
  <circle cx="180" cy="122" r="8" fill="#22C55E"/>
  <rect x="230" y="106" width="210" height="32" rx="8" fill="#F1F5F9"/>
  <rect x="1080" y="106" width="96" height="32" rx="8" fill="#E0E7FF"/>
  <rect x="1188" y="106" width="96" height="32" rx="8" fill="#DBEAFE"/>

  <rect x="90" y="180" width="240" height="620" rx="18" fill="#0F172A"/>
  <text x="130" y="242" fill="#E2E8F0" font-family="Arial, sans-serif" font-size="26" font-weight="700">Dashboard</text>
  <rect x="116" y="278" width="188" height="48" rx="10" fill="#1E293B"/>
  <rect x="116" y="338" width="164" height="16" rx="8" fill="#334155"/>
  <rect x="116" y="372" width="188" height="16" rx="8" fill="#334155"/>
  <rect x="116" y="406" width="148" height="16" rx="8" fill="#334155"/>
  <rect x="116" y="474" width="188" height="104" rx="14" fill="#1E293B"/>
  <rect x="132" y="494" width="100" height="12" rx="6" fill="#64748B"/>
  <rect x="132" y="516" width="152" height="40" rx="8" fill="#0B1220"/>

  <rect x="360" y="180" width="300" height="170" rx="16" fill="#FFFFFF" stroke="#E2E8F0"/>
  <text x="388" y="228" fill="#64748B" font-family="Arial, sans-serif" font-size="20">Active Projects</text>
  <text x="388" y="300" fill="#0F172A" font-family="Arial, sans-serif" font-size="54" font-weight="700">24</text>
  <rect x="388" y="316" width="130" height="16" rx="8" fill="#DCFCE7"/>

  <rect x="680" y="180" width="300" height="170" rx="16" fill="#FFFFFF" stroke="#E2E8F0"/>
  <text x="708" y="228" fill="#64748B" font-family="Arial, sans-serif" font-size="20">Monthly Revenue</text>
  <text x="708" y="300" fill="#0F172A" font-family="Arial, sans-serif" font-size="54" font-weight="700">$128k</text>
  <rect x="708" y="316" width="156" height="16" rx="8" fill="#DBEAFE"/>

  <rect x="1000" y="180" width="300" height="170" rx="16" fill="#FFFFFF" stroke="#E2E8F0"/>
  <text x="1028" y="228" fill="#64748B" font-family="Arial, sans-serif" font-size="20">Customer Growth</text>
  <text x="1028" y="300" fill="#0F172A" font-family="Arial, sans-serif" font-size="54" font-weight="700">+31%</text>
  <rect x="1028" y="316" width="152" height="16" rx="8" fill="#E0E7FF"/>

  <rect x="360" y="370" width="620" height="430" rx="16" fill="#FFFFFF" stroke="#E2E8F0"/>
  <text x="390" y="416" fill="#0F172A" font-family="Arial, sans-serif" font-size="26" font-weight="700">Performance Overview</text>

  <line x1="390" y1="732" x2="944" y2="732" stroke="#CBD5E1"/>
  <line x1="390" y1="676" x2="944" y2="676" stroke="#E2E8F0"/>
  <line x1="390" y1="620" x2="944" y2="620" stroke="#E2E8F0"/>
  <line x1="390" y1="564" x2="944" y2="564" stroke="#E2E8F0"/>
  <line x1="390" y1="508" x2="944" y2="508" stroke="#E2E8F0"/>

  <path d="M398 708C438 682 472 642 516 624C556 608 602 618 646 590C690 562 722 514 768 498C810 484 850 512 892 468L928 444V732H398V708Z" fill="url(#area)"/>
  <path d="M398 708C438 682 472 642 516 624C556 608 602 618 646 590C690 562 722 514 768 498C810 484 850 512 892 468L928 444" stroke="#2563EB" stroke-width="6" stroke-linecap="round" stroke-linejoin="round"/>

  <rect x="1000" y="370" width="300" height="250" rx="16" fill="#FFFFFF" stroke="#E2E8F0"/>
  <text x="1028" y="416" fill="#0F172A" font-family="Arial, sans-serif" font-size="24" font-weight="700">Traffic Sources</text>
  <rect x="1028" y="448" width="180" height="16" rx="8" fill="#DBEAFE"/>
  <rect x="1028" y="488" width="138" height="16" rx="8" fill="#BFDBFE"/>
  <rect x="1028" y="528" width="102" height="16" rx="8" fill="#93C5FD"/>
  <rect x="1028" y="568" width="74" height="16" rx="8" fill="#60A5FA"/>

  <rect x="1000" y="638" width="300" height="162" rx="16" fill="#FFFFFF" stroke="#E2E8F0"/>
  <text x="1028" y="684" fill="#0F172A" font-family="Arial, sans-serif" font-size="24" font-weight="700">Team Activity</text>
  <circle cx="1042" cy="720" r="8" fill="#22C55E"/>
  <rect x="1060" y="712" width="206" height="16" rx="8" fill="#E2E8F0"/>
  <circle cx="1042" cy="752" r="8" fill="#3B82F6"/>
  <rect x="1060" y="744" width="182" height="16" rx="8" fill="#E2E8F0"/>
</svg>
